<?xml version="1.0" encoding="UTF-8"?>
<svg width="1024px" height="1024px" viewBox="0 0 1024 1024" version="1.1" xmlns="http://www.w3.org/2000/svg" xmlns:xlink="http://www.w3.org/1999/xlink">
    <!-- Generator: Sketch 49.2 (51160) - http://www.bohemiancoding.com/sketch -->
    <title>icon</title>
    <desc>Created with Sketch.</desc>
    <defs></defs>
    <g id="icon" stroke="none" stroke-width="1" fill="none" fill-rule="evenodd">
        <g id="Chat-Bubble" transform="translate(0.000000, 30.000000)" fill-rule="nonzero">
            <ellipse id="Oval-11" fill="#0087BE" cx="452.081734" cy="467.448896" rx="452.081734" ry="408.904584"></ellipse>
            <path d="M727.626604,818.508575 C717.337846,823.16811 706.831041,827.430554 696.125724,831.276362 C689.541327,817.070131 677.430458,790.220159 676.794026,788.946761 L558.527739,463.969459 L485.198171,678.011632 L484.974606,678.011632 L429.316905,838.259053 C419.638171,835.348598 410.104432,832.103034 400.729157,828.535837 L194.115553,261.110262 C176.642509,260.454748 173.039107,261.506982 161,260.930188 C167.390822,246.158468 174.593272,231.820075 182.551095,217.97129 C213.493491,218.167631 249.749872,218.167631 254.031177,218.167631 C294.496579,218.167631 356.871426,213.247121 356.871426,213.247121 C377.886607,211.905164 380.122265,242.54652 359.330649,245.006775 C359.330649,245.006775 338.315468,247.467029 315.064629,248.585328 L455.687491,666.828656 L540.195347,413.422404 L480.279725,248.808987 C459.264543,247.690689 439.814322,245.230435 439.814322,245.230435 C418.799141,244.112136 421.481929,212.128823 442.049979,213.470781 C442.049979,213.470781 505.766221,218.39129 543.7724,218.39129 C584.237802,218.39129 646.612649,213.470781 646.612649,213.470781 C667.404265,212.128823 670.087053,242.770179 649.071872,245.230435 C649.071872,245.230435 628.280257,247.690689 605.029418,248.808987 L744.310885,663.921081 L782.987762,535.09319 C802.437982,484.993454 812.274876,443.616441 812.274876,410.51483 C812.274876,362.875349 795.060313,329.773738 780.304972,304.052892 C760.854752,272.069578 742.52236,245.230435 742.52236,213.69444 C742.52236,178.132574 769.35025,145.030963 807.356429,145.030963 C808.92139,145.030963 810.709916,145.030963 812.274876,145.030963 C870.849104,143.465347 890.07576,201.616826 892.534983,241.204563 C892.534983,241.204563 892.534983,242.099201 892.534983,242.54652 C893.429246,258.650006 892.758549,270.503962 892.758549,284.594512 C892.758549,323.511272 885.380879,367.572199 863.471435,422.816104 L776.280789,675.104058 L727.626604,818.508575 Z" id="Combined-Shape" fill="#FFFFFF"></path>
            <path d="M280.11048,959.057885 C266.714568,968.016111 248.603128,964.403426 239.657448,950.988725 C230.711768,937.574025 234.319394,919.437184 247.715306,910.478957 L380.535293,821.658462 C387.831355,816.779378 396.933047,815.448359 405.317729,818.034312 C448.204395,831.261158 493.371645,838.086612 539.581424,838.086612 C773.633933,838.086612 962.496594,663.053181 962.496594,448.315462 C962.496594,233.577744 773.633933,58.5443124 539.581424,58.5443124 C508.30715,58.5443124 477.491648,61.6700698 447.504046,67.8069001 C365.418157,84.6054149 291.048435,123.704799 233.351951,179.520695 C214.105397,198.139918 196.890025,218.457748 181.979449,240.163153 C139.509299,301.987174 116.666254,373.58061 116.666254,448.315462 C116.666254,561.06229 168.907059,666.141288 258.801994,739.766819 C271.270993,749.979148 273.11198,768.380174 262.913954,780.866661 C252.715928,793.353148 234.340674,795.196717 221.871676,784.984388 C118.736818,700.515128 58.3331269,579.017012 58.3331269,448.315462 C58.3331269,361.591462 84.8480175,278.489926 133.919835,207.055821 C151.048557,182.12145 170.789298,158.823143 192.822502,137.5081 C258.515893,73.9559517 342.900498,29.5913106 435.824538,10.574816 C469.652694,3.65203326 504.381102,0.129371817 539.581424,0.129371817 C804.884608,0.129371817 1020.82972,200.262177 1020.82972,448.315462 C1020.82972,696.368748 804.884609,896.501553 539.581424,896.501553 C492.341241,896.501553 445.993905,890.155896 401.608658,877.808604 L280.11048,959.057885 Z" id="Combined-Shape" fill="#222232"></path>
        </g>
    </g>
</svg>